# xmcd CD database file
#
# Track frame offsets:
#	150
#	20832
#	43442
#	64192
#	83122
#	101765
#	125335
#	142235
#	167310
#	185007
#	206700
#	223772
#	247262
#	266710
#	287212
#	306900
#
# Disc length: 4473 seconds
#
# Revision: 16
# Processed by: cddbd v1.5.2PL0 Copyright (c) Steve Scherf et al.
# Submitted via: CDex 1.79
#
DISCID=09117710
DTITLE=David Sanborn - The Best Of David Sanborn
DYEAR=1994
DGENRE=Jazz
TTITLE0=Chicago Song (1987)
TTITLE1=The Dream (1987)
TTITLE2=Let's Just Say Goodbye (1981)
TTITLE3=Slam (1988)
TTITLE4=Lesley Ann (1988)
TTITLE5=Carly's Song (1980)
TTITLE6=Anything You Want (1980)
TTITLE7=A Tear For Crystal (1983)
TTITLE8=Over And Over (1982)
TTITLE9=Rain On Christmas (1982)
TTITLE10=Hideaway (1980)
TTITLE11=It's You (1981)
TTITLE12=As We Speak (1982)
TTITLE13=Lisa (1980)
TTITLE14=Neither One Of Us (1983)
TTITLE15=Lotus Blossom (1978)
EXTD=YEAR: 1994
EXTT0=
EXTT1=
EXTT2=
EXTT3=
EXTT4=
EXTT5=
EXTT6=
EXTT7=
EXTT8=
EXTT9=
EXTT10=
EXTT11=
EXTT12=
EXTT13=
EXTT14=
EXTT15=
PLAYORDER=
